<svg version="1.1" xmlns="http://www.w3.org/2000/svg" x="0" y="0" viewBox="0 0 102 82.6" xml:space="preserve">
    <g>
		<polygon points="24.9,44.3 13.4,55.8 24.9,67.4 28.5,63.7 23.1,58.3 37.6,58.3 66.8,29.1 78.9,29.1
			73.5,34.6 77.1,38.2 88.6,26.7 77.1,15.2 73.5,18.8 78.9,24.3 64.3,24.3 51,37.6 37.6,24.3 23.1,24.3 28.5,18.8 24.9,15.2
			13.4,26.7 24.9,38.2 28.5,34.6 23.1,29.1 35.2,29.1 47.3,41.3 35.2,53.4 23.1,53.4 28.5,48 24.9,44.3"/>
		<polygon points="73.5,48 78.9,53.4 66.8,53.4 57.7,44.9 54.6,48 64.3,58.3 78.9,58.3 73.5,63.7
			77.1,67.4 88.6,55.8 77.1,44.3 73.5,48"/>
		<path d="M0,0v82.6h102V0H0L0,0z M97.1,77.7H4.9V4.9h92.3V77.7L97.1,77.7z"/>
	</g>
</svg>
