<svg version="1.1" xmlns="http://www.w3.org/2000/svg" x="0" y="0" viewBox="0 0 97.8 63.4" xml:space="preserve">
	<g>
		<path d="M95.1,26.4c2.6,0,2.6,0,2.6,0c0-26.4,0-26.4,0-26.4C0,0,0,0,0,0c0,26.4,0,26.4,0,26.4
			c2.6,0,2.6,0,2.6,0c2.6,0,5.3,2.6,5.3,5.3c0,2.6-2.6,5.3-5.3,5.3S0,37,0,37c0,26.4,0,26.4,0,26.4c97.8,0,97.8,0,97.8,0
			c0-26.4,0-26.4,0-26.4c-2.6,0-2.6,0-2.6,0c-2.6,0-5.3-2.6-5.3-5.3C89.9,29.1,92.5,26.4,95.1,26.4L95.1,26.4z M92.5,41.6
			c0,16.5,0,16.5,0,16.5c-7.9,0-7.9,0-7.9,0c0-10.6,0-10.6,0-10.6c-5.3,0-5.3,0-5.3,0c0,10.6,0,10.6,0,10.6c-7.9,0-7.9,0-7.9,0
			c0-10.6,0-10.6,0-10.6c-5.3,0-5.3,0-5.3,0c0,10.6,0,10.6,0,10.6c-7.9,0-7.9,0-7.9,0c0-10.6,0-10.6,0-10.6c-5.3,0-5.3,0-5.3,0
			c0,10.6,0,10.6,0,10.6c-7.9,0-7.9,0-7.9,0c0-10.6,0-10.6,0-10.6c-5.3,0-5.3,0-5.3,0c0,10.6,0,10.6,0,10.6c-7.9,0-7.9,0-7.9,0
			c0-10.6,0-10.6,0-10.6c-5.3,0-5.3,0-5.3,0c0,10.6,0,10.6,0,10.6c-7.9,0-7.9,0-7.9,0c0-10.6,0-10.6,0-10.6c-5.3,0-5.3,0-5.3,0
			c0,10.6,0,10.6,0,10.6c-7.9,0-7.9,0-7.9,0c0-16.5,0-16.5,0-16.5c4.6-0.7,7.9-5.3,7.9-9.9s-3.3-9.3-7.9-9.9c0-16.5,0-16.5,0-16.5
			c87.2,0,87.2,0,87.2,0c0,16.5,0,16.5,0,16.5c-4.6,0.7-7.9,5.3-7.9,9.9S87.9,41,92.5,41.6L92.5,41.6z"/>
		<path d="M68.5,16.1v20.7H29.3V16.1H68.5 M74,10.6H23.8v31.7H74V10.6L74,10.6z"/>
	</g>
</svg>
