<svg version="1.1" xmlns="http://www.w3.org/2000/svg" x="0" y="0" viewBox="0 0 108.1 108.1" xml:space="preserve">
    <g>
        <path d="M79.6,28.4H28.4v51.2h51.2V28.4L79.6,28.4z M74,74H34.1V34.1H74V74L74,74z"/>
        <path d="M108.1,31.3v-5.7H93.9V14.2H82.5V0h-5.7v14.2H65.4V0h-5.7v14.2H48.4V0h-5.7v14.2H31.3V0h-5.7
            v14.2H14.2v11.4H0v5.7h14.2v11.4H0v5.7h14.2v11.4H0v5.7h14.2v11.4H0v5.7h14.2v11.4h11.4v14.2h5.7V93.9h11.4v14.2h5.7V93.9h11.4
            v14.2h5.7V93.9h11.4v14.2h5.7V93.9h11.4V82.5h14.2v-5.7H93.9V65.4h14.2v-5.7H93.9V48.4h14.2v-5.7H93.9V31.3H108.1L108.1,31.3z
             M88.2,88.2H19.9V19.9h68.3V88.2L88.2,88.2z"/>
    </g>
</svg>
